<?xml version="1.0" encoding="UTF-8" standalone="no"?>
<!-- Created with Inkscape (http://www.inkscape.org/) -->

<svg
   width="12.94455mm"
   height="14.309074mm"
   viewBox="0 0 12.94455 14.309074"
   version="1.1"
   id="svg1646"
   inkscape:version="1.1 (c68e22c387, 2021-05-23)"
   sodipodi:docname="pin_fibre.svg"
   xmlns:inkscape="http://www.inkscape.org/namespaces/inkscape"
   xmlns:sodipodi="http://sodipodi.sourceforge.net/DTD/sodipodi-0.dtd"
   xmlns="http://www.w3.org/2000/svg"
   xmlns:svg="http://www.w3.org/2000/svg">
  <sodipodi:namedview
     id="namedview1648"
     pagecolor="#ffffff"
     bordercolor="#666666"
     borderopacity="1.0"
     inkscape:pageshadow="2"
     inkscape:pageopacity="0.0"
     inkscape:pagecheckerboard="0"
     inkscape:document-units="mm"
     showgrid="false"
     lock-margins="true"
     fit-margin-top="1"
     fit-margin-left="1"
     fit-margin-right="1"
     fit-margin-bottom="1"
     inkscape:zoom="1.9628562"
     inkscape:cx="28.529854"
     inkscape:cy="72.598288"
     inkscape:window-width="2400"
     inkscape:window-height="1271"
     inkscape:window-x="-9"
     inkscape:window-y="-9"
     inkscape:window-maximized="1"
     inkscape:current-layer="layer1" />
  <defs
     id="defs1643" />
  <g
     inkscape:label="Calque 1"
     inkscape:groupmode="layer"
     id="layer1"
     transform="translate(-97.2299,-129.33583)">
    <g
       id="g1589"
       style="display:inline"
       transform="translate(-131.43394,48.915358)">
      <path
         style="color:#000000;display:inline;fill:#003785;fill-opacity:1;stroke:none;stroke-width:3.33163;stroke-linejoin:round;stroke-miterlimit:4;stroke-dasharray:none;stroke-opacity:1;paint-order:stroke fill markers"
         d="m 235.13611,81.420477 a 5.4722785,5.4722785 0 0 0 -5.47227,5.472274 5.4722785,5.4722785 0 0 0 4.5316,5.3875 c 0.4235,0.73313 0.87157,1.4493 0.94067,1.4493 0.0691,0 0.51719,-0.71617 0.94067,-1.4493 a 5.4722785,5.4722785 0 0 0 4.53161,-5.3875 5.4722785,5.4722785 0 0 0 -5.47228,-5.472274 z"
         id="path1577" />
      <g
         id="g1587"
         transform="translate(-0.03369877,0.2932753)">
        <g
           id="g1583"
           transform="matrix(0.93939667,0,0,0.93939667,2.8240731,15.241686)"
           style="fill:#ffffff">
          <path
             style="fill:#ffffff;fill-opacity:1;stroke:none;stroke-width:0.264583px;stroke-linecap:butt;stroke-linejoin:miter;stroke-opacity:1"
             d="m 247.41263,73.308768 -1.17952,0.655288 -1.46546,1.155687 0.13106,2.776035 0.11914,0.726773 1.02463,0.09532 2.52584,0.03574 1.03654,-0.0834 0.28595,-0.428913 -0.0596,-3.324096 z"
             id="path1579" />
          <path
             style="fill:#ffffff;stroke-width:0.029173"
             d="m 245.21015,78.867223 c -0.25264,-0.07962 -0.45556,-0.277106 -0.54639,-0.531745 -0.0311,-0.08733 -0.0398,-0.410493 -0.0408,-1.520119 l -0.001,-1.409202 -0.1652,0.118304 c -0.1896,0.135771 -0.26621,0.145907 -0.37772,0.04999 -0.0894,-0.07693 -0.10715,-0.215838 -0.0381,-0.299737 0.0819,-0.09946 2.83957,-2.149523 2.97049,-2.20819 0.18126,-0.08124 0.46599,-0.08124 0.64726,0 0.13092,0.05867 2.88869,2.108732 2.97049,2.20819 0.069,0.08389 0.0514,0.222812 -0.0381,0.299737 -0.11135,0.09583 -0.18813,0.08579 -0.37669,-0.04923 l -0.16417,-0.117553 -0.008,1.452219 c -0.008,1.443701 -0.008,1.45294 -0.0742,1.575429 -0.0893,0.167223 -0.25155,0.323689 -0.41292,0.398322 -0.13203,0.06106 -0.16213,0.062 -2.17598,0.06766 -1.65562,0.0045 -2.06601,-0.0019 -2.16834,-0.03404 z m 4.18715,-0.48103 c 0.18842,-0.114886 0.18387,-0.07027 0.18253,-1.786577 l -10e-4,-1.554909 -0.9929,-0.743911 c -0.5461,-0.409151 -1.05097,-0.769314 -1.12195,-0.800363 -0.1276,-0.05581 -0.13049,-0.05581 -0.25811,0 -0.0709,0.03104 -0.57584,0.391212 -1.12193,0.800363 l -0.9929,0.743911 -0.001,1.554909 c -10e-4,1.716306 -0.006,1.671683 0.18253,1.786577 0.0901,0.055 0.16087,0.05694 2.06258,0.05694 1.90169,0 1.97238,-0.002 2.06256,-0.05694 z"
             id="path1581"
             sodipodi:nodetypes="csccsssssscscscsccccccsssscccscc" />
        </g>
        <path
           d="m 234.99736,88.009115 c -0.10471,-0.08237 -0.14146,-0.21818 -0.0914,-0.337963 0.0416,-0.09964 0.16127,-0.182304 0.26386,-0.182304 0.10251,0 0.22221,0.08267 0.26385,0.182304 0.0786,0.188165 -0.059,0.393201 -0.26385,0.393201 -0.0611,0 -0.13056,-0.02229 -0.17246,-0.05525 z m -0.56271,-0.611102 c -0.0843,-0.08963 -0.0786,-0.22293 0.0127,-0.307648 0.1973,-0.182852 0.59918,-0.286064 0.90743,-0.233049 0.21735,0.03739 0.44373,0.134161 0.54075,0.23117 0.13585,0.135857 0.052,0.372957 -0.13186,0.372957 -0.0407,0 -0.14475,-0.04007 -0.23118,-0.08907 -0.13868,-0.07859 -0.18131,-0.08906 -0.3627,-0.08906 -0.18138,0 -0.22401,0.01048 -0.36269,0.08906 -0.18687,0.105899 -0.29037,0.113035 -0.37247,0.02564 z m -0.37979,-0.567076 c -0.075,-0.03016 -0.11826,-0.108974 -0.11826,-0.214811 0,-0.103132 0.11267,-0.202624 0.35369,-0.312392 0.57025,-0.259681 1.24745,-0.250537 1.8038,0.02436 0.21683,0.107147 0.30894,0.197482 0.30894,0.302996 0,0.09872 -0.0426,0.160903 -0.13675,0.199933 -0.0779,0.03224 -0.0997,0.02662 -0.29689,-0.07625 -0.28039,-0.146316 -0.48949,-0.197693 -0.80464,-0.197693 -0.31177,0 -0.50583,0.04735 -0.78668,0.191949 -0.22791,0.117347 -0.23243,0.11849 -0.32321,0.08191 z"
           style="fill:#003785;fill-opacity:1;stroke-width:0.00725091"
           id="path1585" />
      </g>
    </g>
  </g>
</svg>
