<?xml version="1.0" encoding="UTF-8" standalone="no"?>
<!-- Created with Inkscape (http://www.inkscape.org/) -->

<svg
   width="69.574028mm"
   height="62.405701mm"
   viewBox="0 0 69.574028 62.405701"
   version="1.1"
   id="svg1903"
   inkscape:version="1.1 (c68e22c387, 2021-05-23)"
   sodipodi:docname="home__people.svg"
   xmlns:inkscape="http://www.inkscape.org/namespaces/inkscape"
   xmlns:sodipodi="http://sodipodi.sourceforge.net/DTD/sodipodi-0.dtd"
   xmlns="http://www.w3.org/2000/svg"
   xmlns:svg="http://www.w3.org/2000/svg">
  <sodipodi:namedview
     id="namedview1905"
     pagecolor="#ffffff"
     bordercolor="#666666"
     borderopacity="1.0"
     inkscape:pageshadow="2"
     inkscape:pageopacity="0.0"
     inkscape:pagecheckerboard="0"
     inkscape:document-units="mm"
     showgrid="false"
     lock-margins="true"
     fit-margin-top="1"
     fit-margin-left="1"
     fit-margin-right="1"
     fit-margin-bottom="1"
     inkscape:zoom="1.3879489"
     inkscape:cx="85.017537"
     inkscape:cy="141.57581"
     inkscape:window-width="2400"
     inkscape:window-height="1271"
     inkscape:window-x="2391"
     inkscape:window-y="-9"
     inkscape:window-maximized="1"
     inkscape:current-layer="layer1" />
  <defs
     id="defs1900" />
  <g
     inkscape:label="Calque 1"
     inkscape:groupmode="layer"
     id="layer1"
     transform="translate(-82.2592,-111.00639)">
    <path
       style="display:inline;fill:#ffffff;fill-opacity:0.405732;stroke-width:0.0783225"
       d="m 95.16744,170.18269 c -1.10592,-0.21954 -2.01496,-1.02068 -2.37812,-2.09605 -0.14761,-0.43709 -0.15061,-0.83486 -0.13059,-17.44395 l 0.0205,-16.99662 0.25048,-0.50743 c 0.1386,-0.28079 0.41846,-0.66916 0.62657,-0.86952 0.45612,-0.43912 24.92498,-19.47677 25.46359,-19.81158 0.96765,-0.60153 2.19459,-0.60153 3.16222,0 0.53863,0.33481 25.00749,19.37246 25.4636,19.81158 0.20804,0.2003 0.48799,0.58873 0.62659,0.86952 l 0.25045,0.50743 0.02,16.99662 c 0.02,16.60909 0.0177,17.00686 -0.13067,17.44395 -0.29965,0.8873 -0.97765,1.59793 -1.86731,1.95718 l -0.45052,0.18195 -25.29797,0.0112 c -13.91388,0.007 -25.44707,-0.0177 -25.62929,-0.0543 z"
       id="path1980" />
    <g
       id="g2302"
       transform="matrix(0.55854448,0,0,0.55854448,129.10403,210.96311)"
       style="display:inline">
      <g
         id="g1984"
         transform="matrix(0.6191749,0,0,0.6191749,-366.58766,-288.10746)"
         style="fill:#ffffff">
        <polygon
           style="fill:#ffffff"
           points="506.353,299.474 498.269,307.666 486.306,297.955 494.964,287.289 "
           id="polygon1982" />
      </g>
      <g
         id="g1990"
         transform="matrix(0.6191749,0,0,0.6191749,-366.58766,-288.10746)"
         style="fill:#001737;fill-opacity:1">
        <g
           id="g1988"
           style="fill:#000000;fill-opacity:1">
          <path
             style="fill:#000000;fill-opacity:1"
             d="m 492.49,317.026 c 0.985,0.569 2.275,0.217 2.936,-0.803 2.61,-4.031 8.955,-12.746 8.22,-13.222 -0.938,-0.607 -12.021,-4.134 -12.021,-4.134 0,0 3.347,-5.759 -1.189,-7.272 -3.48,-1.161 -9.236,0.154 -11.725,0.829 -0.79,0.214 -1.604,0.193 -2.354,-0.064 -3.228,-1.104 -12.346,-3.771 -15.109,0.258 -3.378,4.926 -0.997,5.654 -0.059,6.262 0.805,0.523 24.583,14.264 31.301,18.146 z"
             id="path1986" />
        </g>
      </g>
      <g
         id="g1994"
         transform="matrix(0.6191749,0,0,0.6191749,-366.58766,-288.10746)"
         style="fill:#0d284e;fill-opacity:1">
        <path
           style="fill:#0d284e;fill-opacity:1"
           d="m 613.578,313.134 h -78.921 c -4.441,0 -8.041,-3.6 -8.041,-8.041 V 231.33 c 0,-4.441 3.6,-8.041 8.041,-8.041 h 78.921 c 4.441,0 8.041,3.6 8.041,8.041 v 73.762 c 10e-4,4.441 -3.6,8.042 -8.041,8.042 z"
           id="path1992" />
      </g>
      <g
         id="g1998"
         transform="matrix(0.6191749,0,0,0.6191749,-366.58766,-288.10746)"
         style="fill:#003785;fill-opacity:1">
        <path
           style="fill:#003785;fill-opacity:1"
           d="m 596.834,313.134 h -78.921 c -4.441,0 -8.041,-3.6 -8.041,-8.041 V 231.33 c 0,-4.441 3.6,-8.041 8.041,-8.041 h 78.921 c 4.441,0 8.041,3.6 8.041,8.041 v 73.762 c 0,4.441 -3.6,8.042 -8.041,8.042 z"
           id="path1996" />
      </g>
      <g
         id="g2002"
         transform="matrix(0.6191749,0,0,0.6191749,-366.58766,-288.10746)"
         style="fill:#ffffff">
        <path
           style="fill:#ffffff"
           d="m 539.088,236.3 c -0.392,0.703 -8.734,4.106 -5.473,9.782 6.17,10.741 10.721,2.062 10.721,2.062 l -0.425,-8.994 z"
           id="path2000" />
      </g>
      <g
         id="g2006"
         transform="matrix(0.6191749,0,0,0.6191749,-366.58766,-288.10746)"
         style="fill:#ffffff">
        <path
           style="fill:#ffffff"
           d="m 545.372,247.74 c 0,0 0.071,-6.612 -1.462,-8.589 -1.533,-1.977 -4.438,-2.851 -5.844,-2.056 -2.407,1.359 2.364,4.058 2.364,4.058 0,0 -2.045,6.563 0.151,9.274 2.196,2.711 4.791,-2.687 4.791,-2.687 z"
           id="path2004" />
      </g>
      <g
         id="g2010"
         transform="matrix(0.6191749,0,0,0.6191749,-366.58766,-288.10746)">
        <path
           style="fill:#1c1c47"
           d="m 621.478,309.982 v 5.402 c 0,1.418 -0.09,2.8 -0.264,4.12 -0.881,6.685 -3.847,11.606 -7.377,11.606 H 527.78 c -3.53,0 -6.502,-4.921 -7.383,-11.606 -0.174,-1.32 -0.264,-2.701 -0.264,-4.12 v -5.402 c 0,-8.683 3.422,-15.725 7.646,-15.725 h 86.057 c 4.22,0 7.642,7.042 7.642,15.725 z"
           id="path2008" />
      </g>
      <g
         id="g2014"
         style="fill:#f7c286;fill-opacity:1"
         transform="matrix(0.6191749,0,0,0.6191749,-366.58766,-288.10746)">
        <path
           style="fill:#f7c286;fill-opacity:1"
           d="m 573.557,275.256 c 0,0 -35.642,-10.911 -48.407,-10.91 -12.764,10e-4 -36.066,25.629 -36.066,25.629 l 18.101,13.245 27.29,-18.194 z"
           id="path2012" />
      </g>
      <g
         id="g2018"
         transform="matrix(0.6191749,0,0,0.6191749,-366.58766,-288.10746)"
         style="fill:#001737;fill-opacity:1">
        <path
           style="fill:#001737;fill-opacity:1"
           d="m 609.274,310.206 v 5.402 c 0,1.418 -0.092,2.8 -0.27,4.12 -0.902,6.685 -3.941,11.606 -7.556,11.606 H 513.3 c -3.615,0 -6.66,-4.921 -7.562,-11.606 -0.178,-1.32 -0.27,-2.701 -0.27,-4.12 v -5.402 c 0,-8.683 3.505,-15.725 7.832,-15.725 h 88.148 c 4.322,0 7.826,7.042 7.826,15.725 z"
           id="path2016" />
      </g>
      <g
         id="g2022"
         transform="matrix(0.6191749,0,0,0.6191749,-366.58766,-288.10746)"
         style="fill:#60c0c3;fill-opacity:1">
        <path
           style="fill:#60c0c3;fill-opacity:1"
           d="m 567.027,239.574 c 0,0 -11.839,9.644 -12.581,9.272 -0.743,-0.371 -7.055,-4.791 -7.055,-4.791 l -11.14,8.318 c 0,0 8.412,19.848 20.463,19.347 12.051,-0.5 16.009,-13.407 16.009,-13.407 z"
           id="path2020" />
      </g>
      <g
         id="g2026"
         transform="matrix(0.6191749,0,0,0.6191749,-366.58766,-288.10746)">
        <path
           style="fill:#ffffff"
           d="m 554.57,254.995 c -0.036,0 -0.073,-0.002 -0.11,-0.006 -0.335,-0.032 -0.61,-0.2 -0.797,-0.487 -0.886,-1.358 0.372,-5.297 0.519,-5.742 0.038,-0.113 0.144,-0.19 0.264,-0.19 0.121,0.001 0.227,0.078 0.264,0.192 0.155,0.482 1.493,4.745 0.559,5.904 -0.175,0.217 -0.415,0.329 -0.699,0.329 z m -0.125,-5.175 c -0.386,1.424 -0.821,3.608 -0.318,4.379 0.096,0.146 0.219,0.223 0.386,0.239 0.181,0.015 0.269,-0.051 0.323,-0.119 0.474,-0.589 0.076,-2.795 -0.391,-4.499 z"
           id="path2024" />
      </g>
      <g
         id="g2030"
         transform="matrix(0.6191749,0,0,0.6191749,-366.58766,-288.10746)"
         style="fill:#003785;fill-opacity:1">
        <circle
           transform="matrix(0.7071,-0.7071,0.7071,0.7071,-57.2829,447.2986)"
           style="fill:#003785;fill-opacity:1"
           cx="511.29599"
           cy="292.79599"
           id="circle2028"
           r="15.058" />
      </g>
      <g
         id="g2034"
         transform="matrix(0.6191749,0,0,0.6191749,-366.58766,-288.10746)"
         style="fill:#001737;fill-opacity:1">
        <path
           style="fill:#001737;fill-opacity:1"
           d="m 517.981,292.796 c 0,3.692 -2.993,6.685 -6.685,6.685 -3.692,0 -6.685,-2.993 -6.685,-6.685 0,-3.692 2.993,-6.685 6.685,-6.685 3.692,0 6.685,2.993 6.685,6.685 z"
           id="path2032" />
      </g>
      <g
         id="g2038"
         transform="matrix(0.6191749,0,0,0.6191749,-366.58766,-288.10746)">
        <path
           style="fill:#242254"
           d="m 521.345,346.058 h -0.633 c -1.553,0 -2.867,-1.149 -3.075,-2.688 L 515.432,327 h 9.718 l -0.705,16.091 c -0.073,1.659 -1.439,2.967 -3.1,2.967 z"
           id="path2036" />
      </g>
      <g
         id="g2042"
         transform="matrix(0.6191749,0,0,0.6191749,-366.58766,-288.10746)"
         style="fill:#001737;fill-opacity:1">
        <path
           style="fill:#001737;fill-opacity:1"
           d="m 540.388,346.058 h -0.633 c -1.553,0 -2.867,-1.149 -3.075,-2.688 L 534.475,327 h 9.718 l -0.705,16.091 c -0.074,1.659 -1.44,2.967 -3.1,2.967 z"
           id="path2040" />
      </g>
      <g
         id="g2046"
         transform="matrix(0.6191749,0,0,0.6191749,-366.58766,-288.10746)"
         style="fill:#001737;fill-opacity:1">
        <path
           style="fill:#001737;fill-opacity:1"
           d="m 593.835,346.058 h 0.633 c 1.553,0 2.867,-1.149 3.075,-2.688 L 599.749,327 h -9.718 l 0.705,16.091 c 0.072,1.659 1.439,2.967 3.099,2.967 z"
           id="path2044" />
      </g>
      <g
         id="g2050"
         transform="matrix(0.6191749,0,0,0.6191749,-366.58766,-288.10746)">
        <path
           style="fill:#1c1c47"
           d="m 613.079,344.926 h 0.633 c 1.553,0 2.867,-1.149 3.075,-2.688 l 2.206,-16.37 h -9.718 l 0.705,16.091 c 0.073,1.659 1.439,2.967 3.099,2.967 z"
           id="path2048" />
      </g>
      <g
         id="g2054"
         transform="matrix(0.6191749,0,0,0.6191749,-366.58766,-288.10746)">
        <path
           style="fill:#1b1b44"
           d="m 588.106,299.803 c 0,2.353 -10.918,4.261 -24.386,4.261 -13.468,0 -24.386,-1.908 -24.386,-4.261 0,-2.353 10.918,-4.261 24.386,-4.261 13.468,0 24.386,1.907 24.386,4.261 z"
           id="path2052" />
      </g>
      <g
         id="g2058"
         transform="matrix(0.6191749,0,0,0.6191749,-366.58766,-288.10746)"
         style="fill:#ffffff">
        <polygon
           style="fill:#ffffff"
           points="538.998,329.275 537.884,340.729 522.476,340.729 522.476,326.991 "
           id="polygon2056" />
      </g>
      <g
         id="g2062"
         style="fill:#f7c286;fill-opacity:1"
         transform="matrix(0.6191749,0,0,0.6191749,-366.58766,-288.10746)">
        <path
           style="fill:#f7c286;fill-opacity:1"
           d="m 592.153,277.295 c 0,0 1.587,16.214 -2.869,18.289 -4.456,2.075 -34.376,5.243 -36.028,6.54 -1.652,1.297 -8.435,34.316 -8.435,34.316 l -27.807,-7.264 c 0,0 6.182,-40.06 13.318,-44.47 5.362,-3.314 35.729,-9.056 35.729,-9.056 z"
           id="path2060" />
      </g>
      <g
         id="g2066"
         transform="matrix(0.6191749,0,0,0.6191749,-366.58766,-288.10746)"
         style="fill:#003785;fill-opacity:1">
        <path
           style="fill:#003785;fill-opacity:1"
           d="m 552.91,302.57 c -0.05,0 -0.1,-0.014 -0.144,-0.04 -0.19,-0.115 -4.657,-2.845 -5.067,-5.115 -0.093,-0.509 0.017,-0.965 0.323,-1.354 0.365,-0.463 0.766,-0.508 1.031,-0.46 1.819,0.299 3.888,5.954 4.117,6.599 0.04,0.11 0.005,0.233 -0.086,0.308 -0.049,0.041 -0.112,0.062 -0.174,0.062 z m -4.021,-6.428 c -0.111,0 -0.261,0.047 -0.432,0.264 -0.207,0.262 -0.277,0.56 -0.214,0.911 0.276,1.528 2.846,3.432 4.111,4.286 -0.894,-2.287 -2.384,-5.289 -3.392,-5.454 -0.021,-0.004 -0.045,-0.007 -0.073,-0.007 z"
           id="path2064" />
      </g>
      <g
         id="g2070"
         transform="matrix(0.6191749,0,0,0.6191749,-366.58766,-288.10746)"
         style="fill:#003785;fill-opacity:1">
        <path
           style="fill:#003785;fill-opacity:1"
           d="m 532.69,281.936 c -0.024,0 -0.05,-0.004 -0.074,-0.011 -0.447,-0.124 -4.384,-1.266 -4.946,-2.991 -0.153,-0.469 -0.055,-0.929 0.292,-1.368 0.426,-0.538 0.893,-0.608 1.216,-0.568 1.74,0.211 3.563,4.103 3.765,4.546 0.045,0.099 0.028,0.214 -0.041,0.295 -0.055,0.062 -0.132,0.097 -0.212,0.097 z m -3.662,-4.393 c -0.229,0 -0.437,0.121 -0.631,0.367 -0.229,0.289 -0.294,0.567 -0.201,0.853 0.341,1.046 2.607,1.993 3.967,2.444 -0.678,-1.33 -2.007,-3.532 -3.053,-3.659 -0.027,-0.003 -0.055,-0.005 -0.082,-0.005 z"
           id="path2068" />
      </g>
      <g
         id="g2074"
         transform="matrix(0.6191749,0,0,0.6191749,-366.58766,-288.10746)"
         style="fill:#000000;fill-opacity:1">
        <path
           style="fill:#000000;fill-opacity:1"
           d="m 587.334,221.965 c 0,0 2.701,-0.264 3.223,6.184 0.523,6.448 -0.958,18.426 -0.958,18.426 l -21.082,-3.18 4.007,-14.33 z"
           id="path2072" />
      </g>
      <g
         id="g2080"
         transform="matrix(0.6191749,0,0,0.6191749,-366.58766,-288.10746)"
         style="fill:#60c0c3;fill-opacity:1">
        <g
           id="g2078"
           style="fill:#60c0c3;fill-opacity:1">
          <path
             style="fill:#60c0c3;fill-opacity:1"
             d="m 592.31,279.462 c 0,0 2.865,-31.106 1.397,-33.412 -4.528,-7.112 -19.549,-10.283 -26.68,-6.476 -4.463,2.383 -3.056,10.579 -4.907,24.031 -1.042,7.57 -5.407,8.116 -5.407,8.116 z"
             id="path2076" />
        </g>
      </g>
      <g
         id="g2092"
         transform="matrix(0.6191749,0,0,0.6191749,-366.58766,-288.10746)"
         style="fill:#ffffff">
        <g
           id="g2090"
           style="fill:#ffffff">
          <g
             id="g2088"
             style="fill:#ffffff">
            <g
               id="g2086"
               style="fill:#ffffff">
              <g
                 id="g2084"
                 style="fill:#ffffff">
                <path
                   style="fill:#ffffff"
                   d="m 574.638,234.954 -0.02,0.163 -0.262,3.095 -0.216,2.425 c 0,0 -0.279,0.534 2.553,0.717 3.798,0.23 5.221,-1.229 5.221,-1.229 l 0.895,-5.635 -1.169,0.069 z"
                   id="path2082" />
              </g>
            </g>
          </g>
        </g>
      </g>
      <g
         id="g2104"
         transform="matrix(0.6191749,0,0,0.6191749,-366.58766,-288.10746)">
        <g
           id="g2102">
          <g
             id="g2100">
            <g
               id="g2098">
              <g
                 id="g2096">
                <path
                   d="m 574.618,235.118 -0.262,3.095 c 1.858,0.015 5.29,-0.344 7.008,-3.047 0.134,-0.22 0.23,-0.422 0.274,-0.594 l -7.003,0.5 z"
                   id="path2094" />
              </g>
            </g>
          </g>
        </g>
      </g>
      <g
         id="g2116"
         transform="matrix(0.6191749,0,0,0.6191749,-366.58766,-288.10746)"
         style="fill:#ffffff">
        <g
           id="g2114"
           style="fill:#ffffff">
          <g
             id="g2112"
             style="fill:#ffffff">
            <g
               id="g2110"
               style="fill:#ffffff">
              <g
                 id="g2108"
                 style="fill:#ffffff">
                <path
                   style="fill:#ffffff"
                   d="m 575.338,220.235 c 0,0 -4.541,7.557 -3.865,12.222 0.677,4.665 4.87,4.489 7.436,3.938 2.567,-0.551 3.901,-1.908 3.901,-1.908 0,0 2.191,1.075 4.001,-0.857 1.81,-1.932 1.184,-4.503 -0.052,-5.233 -1.236,-0.731 -2.915,0.012 -2.915,0.012 l 1.522,-2.17 c 10e-4,-0.001 -3.594,-12.5 -10.028,-6.004 z"
                   id="path2106" />
              </g>
            </g>
          </g>
        </g>
      </g>
      <g
         id="g2120"
         transform="matrix(0.6191749,0,0,0.6191749,-366.58766,-288.10746)"
         style="fill:#0d284e;fill-opacity:1">
        <rect
           x="582.86798"
           y="277.73801"
           style="fill:#0d284e;fill-opacity:1"
           width="38.750999"
           height="30.115"
           id="rect2118" />
      </g>
      <g
         id="g2124"
         transform="matrix(0.6191749,0,0,0.6191749,-366.58766,-288.10746)"
         style="fill:#003785;fill-opacity:1">
        <circle
           transform="matrix(0.9224,-0.3862,0.3862,0.9224,-67.857,247.8355)"
           style="fill:#003785;fill-opacity:1"
           cx="582.86798"
           cy="292.79599"
           id="circle2122"
           r="15.058" />
      </g>
      <g
         id="g2128"
         transform="matrix(0.6191749,0,0,0.6191749,-366.58766,-288.10746)"
         style="fill:#001737;fill-opacity:1">
        <path
           style="fill:#001737;fill-opacity:1"
           d="m 589.553,292.796 c 0,3.692 -2.993,6.685 -6.685,6.685 -3.692,0 -6.685,-2.993 -6.685,-6.685 0,-3.692 2.993,-6.685 6.685,-6.685 3.692,0 6.685,2.993 6.685,6.685 z"
           id="path2126" />
      </g>
      <g
         id="g2132"
         transform="matrix(0.6191749,0,0,0.6191749,-366.58766,-288.10746)">
        <path
           style="fill:#ffffff"
           d="m 577.686,241.838 c -2.505,0 -4.304,-0.881 -4.417,-0.938 -0.137,-0.069 -0.192,-0.235 -0.124,-0.372 0.069,-0.137 0.235,-0.19 0.372,-0.124 0.041,0.021 4.093,1.999 8.417,-0.091 0.134,-0.065 0.304,-0.01 0.37,0.13 0.066,0.138 0.009,0.303 -0.13,0.37 -1.597,0.771 -3.144,1.025 -4.488,1.025 z"
           id="path2130" />
      </g>
      <g
         id="g2136"
         transform="matrix(0.6191749,0,0,0.6191749,-366.58766,-288.10746)"
         style="fill:#0d284e;fill-opacity:1">
        <path
           d="m 583.237,232.2 c -0.08,0 -0.159,-0.035 -0.214,-0.102 -0.098,-0.118 -0.08,-0.293 0.038,-0.39 l 2.572,-2.112 c 0.118,-0.098 0.292,-0.08 0.39,0.038 0.098,0.118 0.08,0.293 -0.038,0.39 l -2.572,2.112 c -0.052,0.044 -0.114,0.064 -0.176,0.064 z"
           id="path2134"
           style="fill:#0d284e;fill-opacity:1" />
      </g>
      <g
         id="g2140"
         transform="matrix(0.6191749,0,0,0.6191749,-366.58766,-288.10746)"
         style="fill:#001737;fill-opacity:1">
        <path
           d="m 585.831,231.85 c -0.016,0 -0.032,-0.002 -0.05,-0.005 l -1.775,-0.321 c -0.15,-0.027 -0.25,-0.171 -0.223,-0.322 0.027,-0.149 0.155,-0.249 0.322,-0.223 l 1.775,0.321 c 0.15,0.027 0.25,0.171 0.223,0.322 -0.024,0.134 -0.14,0.228 -0.272,0.228 z"
           id="path2138"
           style="fill:#001737;fill-opacity:1" />
      </g>
      <g
         id="g2144"
         transform="matrix(0.6191749,0,0,0.6191749,-366.58766,-288.10746)">
        <path
           d="m 579.854,224.703 c -0.03,0 -0.06,-0.005 -0.091,-0.016 l -1.845,-0.637 c -0.145,-0.05 -0.221,-0.207 -0.171,-0.353 0.05,-0.143 0.208,-0.221 0.352,-0.171 l 1.845,0.637 c 0.145,0.05 0.221,0.207 0.171,0.353 -0.038,0.115 -0.146,0.187 -0.261,0.187 z"
           id="path2142" />
      </g>
      <g
         id="g2148"
         transform="matrix(0.6191749,0,0,0.6191749,-366.58766,-288.10746)">
        <path
           d="m 575.571,223.882 c -0.021,-0.001 -1.431,-0.107 -1.431,-0.107 -0.153,-0.012 -0.268,-0.145 -0.256,-0.297 0.011,-0.152 0.153,-0.271 0.297,-0.256 l 1.41,0.106 c 0.153,0.012 0.268,0.145 0.256,0.297 -0.01,0.145 -0.132,0.257 -0.276,0.257 z"
           id="path2146" />
      </g>
      <g
         id="g2152"
         transform="matrix(0.6191749,0,0,0.6191749,-366.58766,-288.10746)"
         style="fill:#001737;fill-opacity:1">
        <path
           d="m 575.202,230.088 c -0.121,0 -0.232,-0.08 -0.267,-0.202 -0.531,-1.872 0.869,-3.512 0.929,-3.58 0.101,-0.117 0.275,-0.129 0.391,-0.027 0.115,0.1 0.128,0.274 0.027,0.391 -0.013,0.015 -1.262,1.485 -0.813,3.066 0.042,0.146 -0.044,0.3 -0.191,0.342 -0.025,0.006 -0.052,0.01 -0.076,0.01 z"
           id="path2150"
           style="fill:#001737;fill-opacity:1" />
      </g>
      <g
         id="g2156"
         transform="matrix(0.6191749,0,0,0.6191749,-366.58766,-288.10746)"
         style="fill:#003785;fill-opacity:1">
        <path
           style="fill:#003785;fill-opacity:1"
           d="m 526.838,289.892 c -0.045,0 -0.09,-0.011 -0.132,-0.033 -0.135,-0.073 -0.185,-0.241 -0.112,-0.376 0.165,-0.305 4.064,-7.479 7.486,-9.015 3.715,-1.667 18.594,-6.579 18.743,-6.629 0.148,-0.046 0.302,0.032 0.351,0.177 0.048,0.146 -0.031,0.302 -0.177,0.351 -0.149,0.049 -15.001,4.952 -18.69,6.607 -3.25,1.459 -7.186,8.699 -7.225,8.772 -0.051,0.093 -0.146,0.146 -0.244,0.146 z"
           id="path2154" />
      </g>
      <g
         id="g2160"
         transform="matrix(0.6191749,0,0,0.6191749,-366.58766,-288.10746)"
         style="fill:#ffffff">
        <path
           style="fill:#ffffff"
           d="m 542.891,238.307 c 0,0 -1.152,-6.172 -1.775,-6.869 -0.623,-0.697 -4.456,-2.378 -5.385,-1.537 -0.929,0.84 2.904,3.624 2.904,3.624 l 0.841,4.782 z"
           id="path2158" />
      </g>
      <g
         id="g2164"
         transform="matrix(0.6191749,0,0,0.6191749,-366.58766,-288.10746)"
         style="fill:#ffffff">
        <path
           style="fill:#ffffff"
           d="m 540.567,236.521 c 0,0 -4.288,-0.667 -4.766,0.65 -0.478,1.317 -0.478,1.317 -0.478,1.317 0,0 -1.846,-0.821 -2.49,1.502 -0.644,2.323 0.254,4.911 0.254,4.911 l 5.511,-2.298 z"
           id="path2162" />
      </g>
      <g
         id="g2168"
         transform="matrix(0.6191749,0,0,0.6191749,-366.58766,-288.10746)"
         style="fill:#003785;fill-opacity:1">
        <path
           d="m 541.522,247.724 c -0.046,0 -0.091,-0.011 -0.134,-0.034 -2.089,-1.15 -1.669,-5.57 -1.534,-6.641 -0.514,-0.205 -1.768,-0.831 -2.49,-2.27 -0.258,-0.516 -0.289,-1.001 -0.092,-1.445 0.412,-0.926 1.688,-1.286 1.742,-1.302 0.147,-0.039 0.299,0.047 0.34,0.193 0.041,0.147 -0.045,0.301 -0.192,0.342 -0.011,0.003 -1.08,0.307 -1.384,0.993 -0.128,0.289 -0.102,0.607 0.082,0.971 0.796,1.588 2.361,2.063 2.377,2.067 0.133,0.039 0.217,0.17 0.196,0.308 -0.009,0.052 -0.771,5.2 1.223,6.297 0.134,0.074 0.183,0.242 0.109,0.377 -0.05,0.092 -0.145,0.144 -0.243,0.144 z"
           id="path2166"
           style="fill:#003785;fill-opacity:1" />
      </g>
      <g
         id="g2172"
         transform="matrix(0.6191749,0,0,0.6191749,-366.58766,-288.10746)"
         style="fill:#003785;fill-opacity:1">
        <path
           d="m 538.44,245.178 c -0.25,0 -0.527,-0.049 -0.834,-0.167 -1.07,-0.412 -1.821,-2.563 -2.026,-3.213 -0.518,-1.644 -0.789,-3.679 -0.224,-4.518 1.001,-1.485 2.98,-0.946 3.064,-0.924 0.148,0.041 0.232,0.194 0.191,0.341 -0.041,0.147 -0.19,0.233 -0.342,0.192 -0.067,-0.018 -1.68,-0.452 -2.455,0.7 -0.387,0.575 -0.264,2.275 0.293,4.042 0.482,1.526 1.148,2.65 1.697,2.861 1.213,0.469 1.677,-0.469 1.727,-0.577 0.063,-0.14 0.224,-0.2 0.365,-0.141 0.139,0.063 0.203,0.224 0.142,0.364 -0.181,0.419 -0.713,1.04 -1.598,1.04 z"
           id="path2170"
           style="fill:#003785;fill-opacity:1" />
      </g>
      <g
         id="g2176"
         transform="matrix(0.6191749,0,0,0.6191749,-366.58766,-288.10746)"
         style="fill:#003785;fill-opacity:1">
        <path
           d="m 535.765,246.519 c -0.18,0 -0.366,-0.036 -0.559,-0.118 -1.423,-0.605 -2.551,-3.635 -2.609,-5.939 -0.019,-0.746 0.198,-1.351 0.644,-1.798 0.797,-0.8 2.034,-0.782 2.08,-0.78 0.153,0.004 0.273,0.13 0.271,0.282 -0.003,0.151 -0.126,0.273 -0.277,0.273 -0.007,-0.003 -1.055,-0.015 -1.683,0.619 -0.333,0.336 -0.494,0.804 -0.479,1.391 0.058,2.284 1.183,4.98 2.271,5.443 0.976,0.413 1.742,-1.098 1.75,-1.112 0.069,-0.138 0.238,-0.19 0.371,-0.125 0.138,0.068 0.193,0.234 0.125,0.371 -0.287,0.576 -1,1.493 -1.905,1.493 z"
           id="path2174"
           style="fill:#003785;fill-opacity:1" />
      </g>
      <g
         id="g2180"
         transform="matrix(0.6191749,0,0,0.6191749,-366.58766,-288.10746)"
         style="fill:#001737;fill-opacity:1">
        <path
           d="m 576.349,233.238 c -0.841,0 -1.459,-0.929 -1.488,-0.974 -0.048,-0.074 -0.059,-0.167 -0.026,-0.25 0.032,-0.083 0.102,-0.146 0.188,-0.169 l 2.63,-0.702 c 0.096,-0.028 0.195,0.002 0.266,0.07 0.07,0.068 0.099,0.169 0.074,0.265 -0.015,0.059 -0.37,1.441 -1.325,1.715 -0.11,0.032 -0.216,0.045 -0.319,0.045 z m -0.765,-0.968 c 0.228,0.232 0.573,0.494 0.931,0.391 0.35,-0.1 0.609,-0.495 0.769,-0.845 z"
           id="path2178"
           style="fill:#001737;fill-opacity:1" />
      </g>
      <g
         id="g2184"
         transform="matrix(0.6191749,0,0,0.6191749,-366.58766,-288.10746)"
         style="fill:#001737;fill-opacity:1">
        <path
           d="m 578.469,227.928 c -0.023,0 -0.046,-0.003 -0.068,-0.009 -0.148,-0.038 -0.238,-0.188 -0.2,-0.337 l 0.341,-1.337 -0.327,-0.759 c -0.06,-0.141 0.005,-0.304 0.146,-0.364 0.137,-0.057 0.303,0.004 0.364,0.145 l 0.364,0.845 c 0.023,0.056 0.028,0.118 0.014,0.178 l -0.364,1.429 c -0.034,0.125 -0.147,0.209 -0.27,0.209 z"
           id="path2182"
           style="fill:#001737;fill-opacity:1" />
      </g>
      <g
         id="g2188"
         transform="matrix(0.6191749,0,0,0.6191749,-366.58766,-288.10746)">
        <path
           d="m 573.942,227.355 c -0.022,0 -0.045,-0.003 -0.068,-0.009 -0.148,-0.038 -0.238,-0.188 -0.2,-0.337 l 0.408,-1.604 -0.32,-0.664 c -0.066,-0.138 -0.008,-0.304 0.13,-0.37 0.14,-0.066 0.304,-0.008 0.37,0.13 l 0.363,0.755 c 0.028,0.059 0.034,0.125 0.019,0.188 l -0.433,1.701 c -0.033,0.126 -0.145,0.21 -0.269,0.21 z"
           id="path2186" />
      </g>
      <g
         id="g2192"
         transform="matrix(0.6191749,0,0,0.6191749,-366.58766,-288.10746)">
        <path
           style="fill:#ffffff"
           d="m 561.757,266.608 c -0.187,-0.021 -0.294,-0.159 -0.275,-0.311 0.044,-0.344 1.347,-5.701 1.6,-6.739 -0.261,-0.452 -1.15,-2.287 -0.763,-5.696 0.442,-3.882 4.018,-7.652 4.17,-7.811 0.107,-0.111 0.281,-0.116 0.392,-0.009 0.11,0.105 0.114,0.281 0.009,0.392 -0.036,0.038 -3.599,3.797 -4.019,7.49 -0.416,3.665 0.727,5.415 0.738,5.433 0.043,0.064 0.059,0.146 0.04,0.221 -0.632,2.589 -1.582,6.534 -1.615,6.79 -0.021,0.139 -0.14,0.24 -0.277,0.24 z"
           id="path2190" />
      </g>
      <g
         id="g2198"
         transform="matrix(0.6191749,0,0,0.6191749,-366.58766,-288.10746)"
         style="fill:#000000;fill-opacity:1">
        <g
           id="g2196"
           style="fill:#000000;fill-opacity:1">
          <path
             style="fill:#000000;fill-opacity:1"
             d="m 535.904,353.538 c 1.138,-0.011 2.07,-0.97 2.12,-2.184 0.198,-4.798 1.229,-15.529 0.354,-15.564 -1.117,-0.046 -12.452,2.554 -12.452,2.554 0,0 -0.047,-6.661 -4.722,-5.657 -3.587,0.77 -7.874,4.83 -9.674,6.677 -0.572,0.586 -1.283,0.982 -2.059,1.142 -3.34,0.69 -12.548,3.031 -12.878,7.906 -0.404,5.96 2.017,5.376 3.134,5.421 0.957,0.039 28.419,-0.221 36.177,-0.295 z"
             id="path2194" />
        </g>
      </g>
      <g
         id="g2204"
         transform="matrix(0.6191749,0,0,0.6191749,-366.58766,-288.10746)"
         style="fill:#ffffff">
        <g
           id="g2202"
           style="fill:#ffffff">
          <path
             style="fill:#ffffff"
             d="m 574.133,265.445 c 0,0 -3.155,-2.065 -4.673,-3.136 -2.292,-1.616 -7.734,-3.875 -9.923,-4.78 -2.189,-0.905 -8.685,-0.651 -8.366,0.336 0.319,0.987 5.706,2.302 5.706,2.302 0,0 -5.67,1.696 -5.404,2.718 0.267,1.023 2.168,0.919 2.168,0.919 0,0 -1.758,0.471 -0.78,1.475 0.977,1.004 7.078,0.017 7.078,0.017 0,0 -3.738,2.375 -3.103,3.144 0.636,0.769 5.285,-0.751 5.285,-0.751 0,0 2.482,4.851 5.886,3.913 3.404,-0.939 4.829,-2.322 4.829,-2.322 z"
             id="path2200" />
        </g>
      </g>
      <g
         id="g2210"
         transform="matrix(0.6191749,0,0,0.6191749,-366.58766,-288.10746)"
         style="fill:#60c0c3;fill-opacity:1">
        <g
           id="g2208"
           style="fill:#60c0c3;fill-opacity:1">
          <path
             style="fill:#60c0c3;fill-opacity:1"
             d="m 588.829,241.619 c 0,0 18.793,11.474 12.182,29.295 -4.885,13.17 -33.201,4.072 -33.201,4.072 l 2.995,-13.393 c 0,0 12.969,-1.595 14.31,-2.082 2.591,-0.941 3.714,-17.892 3.714,-17.892 z"
             id="path2206" />
        </g>
      </g>
      <g
         id="g2214"
         transform="matrix(0.6191749,0,0,0.6191749,-366.58766,-288.10746)">
        <path
           style="fill:#ffffff"
           d="m 577.361,263.768 c -0.119,0 -0.229,-0.077 -0.266,-0.197 -0.044,-0.147 0.039,-0.301 0.186,-0.346 0.055,-0.017 5.616,-1.695 14.033,-3.476 0.152,-0.034 0.297,0.066 0.329,0.214 0.031,0.15 -0.065,0.297 -0.214,0.329 -8.393,1.774 -13.933,3.446 -13.988,3.464 -0.026,0.008 -0.054,0.012 -0.08,0.012 z"
           id="path2212" />
      </g>
      <g
         id="g2218"
         transform="matrix(0.6191749,0,0,0.6191749,-366.58766,-288.10746)">
        <path
           style="fill:#ffffff"
           d="m 584.585,261.871 c -0.075,0 -0.15,-0.031 -0.204,-0.09 -0.087,-0.095 -0.098,-0.237 -0.024,-0.344 0.336,-0.494 3.336,-4.807 5.078,-4.228 0.354,0.118 0.428,0.356 0.44,0.488 0.102,1.043 -3.57,3.241 -5.153,4.138 -0.044,0.024 -0.09,0.036 -0.137,0.036 z m 4.481,-4.166 c -0.858,0 -2.336,1.525 -3.464,2.97 2.115,-1.288 3.723,-2.531 3.722,-2.915 -0.007,0 -0.026,-0.012 -0.065,-0.025 -0.06,-0.02 -0.125,-0.03 -0.193,-0.03 z"
           id="path2216" />
      </g>
      <g
         id="g2222"
         transform="matrix(0.6191749,0,0,0.6191749,-366.58766,-288.10746)"
         style="fill:#003785;fill-opacity:1">
        <path
           d="m 553.751,264.076 c -0.121,0 -0.231,-0.079 -0.267,-0.201 -0.042,-0.147 0.043,-0.301 0.19,-0.343 l 6.587,-1.885 c 0.148,-0.039 0.301,0.043 0.343,0.19 0.042,0.148 -0.043,0.301 -0.19,0.343 l -6.587,1.885 c -0.025,0.007 -0.051,0.011 -0.076,0.011 z"
           id="path2220"
           style="fill:#003785;fill-opacity:1" />
      </g>
      <g
         id="g2226"
         transform="matrix(0.6191749,0,0,0.6191749,-366.58766,-288.10746)"
         style="fill:#003785;fill-opacity:1">
        <path
           d="m 556.944,260.485 c -0.121,0 -0.232,-0.079 -0.267,-0.201 -0.042,-0.148 0.043,-0.301 0.19,-0.343 l 2.369,-0.678 c 0.147,-0.038 0.301,0.043 0.343,0.19 0.042,0.147 -0.043,0.301 -0.19,0.343 l -2.369,0.678 c -0.025,0.007 -0.051,0.011 -0.076,0.011 z"
           id="path2224"
           style="fill:#003785;fill-opacity:1" />
      </g>
      <g
         id="g2230"
         transform="matrix(0.6191749,0,0,0.6191749,-366.58766,-288.10746)"
         style="fill:#000000;fill-opacity:1">
        <path
           style="fill:#000000;fill-opacity:1"
           d="m 583.845,228.408 -1.432,1.402 1.045,-2.732 c 0,0 -2.309,-1.716 -2.962,-2.456 -0.653,-0.74 -0.653,-0.74 -0.653,-0.74 v -2.178 l -0.435,2.085 c 0,0 -1.859,-0.309 -2.998,-0.5 -1.139,-0.191 -1.14,-0.191 -1.14,-0.191 v -1.742 l -0.653,1.742 -1.223,-0.392 c 0,0 2.094,-6.359 7.669,-5.227 5.575,1.132 6.272,4.486 6.272,4.486 0,0 1.612,0.61 1.873,2.657 0.261,2.047 -1.299,5.792 -1.299,5.792 0,0 -0.846,-3.272 -4.064,-2.006 z"
           id="path2228" />
      </g>
      <g
         id="g2236"
         transform="matrix(0.6191749,0,0,0.6191749,-366.58766,-288.10746)">
        <g
           id="g2234">
          <path
             style="fill:#ffffff"
             d="m 642.651,285.811 c -3.866,7.784 -10.246,12.481 -14.25,10.493 -4.004,-1.989 -4.115,-9.911 -0.248,-17.695 3.866,-7.784 10.246,-12.481 14.25,-10.493 4.004,1.989 4.115,9.912 0.248,17.695 z"
             id="path2232" />
        </g>
      </g>
      <g
         id="g2242"
         transform="matrix(0.6191749,0,0,0.6191749,-366.58766,-288.10746)">
        <g
           id="g2240">
          <path
             style="fill:#ffffff"
             d="m 601.347,285.251 c 7.573,4.263 11.935,10.878 9.742,14.773 -2.193,3.896 -10.11,3.597 -17.684,-0.666 -7.574,-4.263 -11.935,-10.878 -9.742,-14.773 2.193,-3.895 10.11,-3.597 17.684,0.666 z"
             id="path2238" />
        </g>
      </g>
      <g
         id="g2248"
         transform="matrix(0.6191749,0,0,0.6191749,-366.58766,-288.10746)">
        <g
           id="g2246">
          <path
             style="fill:#ffffff"
             d="m 599.762,316.712 c -6.371,-0.961 -11.136,-4.397 -10.641,-7.674 0.494,-3.277 6.06,-5.155 12.432,-4.193 6.372,0.962 11.136,4.397 10.641,7.675 -0.495,3.276 -6.061,5.154 -12.432,4.192 z"
             id="path2244" />
        </g>
      </g>
      <g
         id="g2254"
         transform="matrix(0.6191749,0,0,0.6191749,-366.58766,-288.10746)">
        <g
           id="g2252">
          <path
             style="fill:#ffffff"
             d="m 636.535,294.268 c 6.94,-5.231 14.748,-6.578 17.439,-3.008 2.691,3.57 -0.754,10.705 -7.695,15.936 -6.94,5.231 -14.748,6.578 -17.439,3.008 -2.69,-3.57 0.755,-10.705 7.695,-15.936 z"
             id="path2250" />
        </g>
      </g>
      <g
         id="g2258"
         transform="matrix(0.6191749,0,0,0.6191749,-366.58766,-288.10746)"
         style="fill:#003785;fill-opacity:1">
        <path
           style="fill:#003785;fill-opacity:1"
           d="m 619.415,322.621 c -0.12,0 -0.232,-0.078 -0.27,-0.199 -4.569,-14.781 -20.343,-12.561 -20.506,-12.537 -0.152,0.022 -0.298,-0.084 -0.321,-0.237 -0.023,-0.153 0.083,-0.297 0.236,-0.321 0.167,-0.023 16.414,-2.321 21.13,12.93 0.046,0.148 -0.037,0.307 -0.186,0.353 -0.028,0.007 -0.056,0.011 -0.083,0.011 z"
           id="path2256" />
      </g>
      <g
         id="g2262"
         transform="matrix(0.6191749,0,0,0.6191749,-366.58766,-288.10746)"
         style="fill:#003785;fill-opacity:1">
        <path
           style="fill:#003785;fill-opacity:1"
           d="m 620.732,321.509 c -0.128,0 -0.244,-0.088 -0.274,-0.218 -4.219,-18.092 -20,-28.361 -20.159,-28.463 -0.131,-0.084 -0.169,-0.258 -0.085,-0.39 0.084,-0.133 0.258,-0.169 0.39,-0.085 0.16,0.103 16.132,10.489 20.403,28.809 0.036,0.152 -0.059,0.304 -0.21,0.339 -0.022,0.005 -0.044,0.008 -0.065,0.008 z"
           id="path2260" />
      </g>
      <g
         id="g2266"
         transform="matrix(0.6191749,0,0,0.6191749,-366.58766,-288.10746)"
         style="fill:#003785;fill-opacity:1">
        <path
           style="fill:#003785;fill-opacity:1"
           d="m 619.663,328.802 c -0.141,0 -0.262,-0.104 -0.28,-0.246 -2.265,-17.754 16.266,-49.653 16.453,-49.974 0.077,-0.135 0.251,-0.18 0.386,-0.101 0.135,0.078 0.18,0.251 0.101,0.386 -0.187,0.318 -18.62,32.054 -16.379,49.616 0.02,0.155 -0.09,0.296 -0.244,0.316 -0.014,0.002 -0.026,0.003 -0.037,0.003 z"
           id="path2264" />
      </g>
      <g
         id="g2270"
         transform="matrix(0.6191749,0,0,0.6191749,-366.58766,-288.10746)"
         style="fill:#003785;fill-opacity:1">
        <path
           style="fill:#003785;fill-opacity:1"
           d="m 621.524,320.204 c -0.191,-0.023 -0.3,-0.165 -0.279,-0.319 0.018,-0.132 2.009,-13.326 23.319,-23.109 0.146,-0.061 0.31,-0.001 0.375,0.139 0.064,0.142 0.002,0.31 -0.139,0.375 -21.004,9.641 -22.979,22.541 -22.997,22.67 -0.018,0.141 -0.139,0.244 -0.279,0.244 z"
           id="path2268" />
      </g>
      <g
         id="g2276"
         transform="matrix(0.6191749,0,0,0.6191749,-366.58766,-288.10746)"
         style="fill:#64abad;fill-opacity:1">
        <g
           id="g2274"
           style="fill:#64abad;fill-opacity:1">
          <path
             style="fill:#64abad;fill-opacity:1"
             d="m 631.811,347.671 h -17.917 c -0.972,0 -1.785,-0.692 -1.88,-1.6 l -2.741,-26.102 c -0.109,-1.043 0.763,-1.948 1.88,-1.948 h 23.4 c 1.117,0 1.99,0.904 1.88,1.948 l -2.741,26.102 c -0.097,0.908 -0.91,1.6 -1.881,1.6 z"
             id="path2272" />
        </g>
      </g>
      <g
         id="g2282"
         transform="matrix(0.6191749,0,0,0.6191749,-366.58766,-288.10746)"
         style="fill:#60c0c3;fill-opacity:1">
        <g
           id="g2280"
           style="fill:#60c0c3;fill-opacity:1">
          <path
             style="fill:#60c0c3;fill-opacity:1"
             d="m 627.845,347.671 h -17.917 c -0.971,0 -1.785,-0.692 -1.88,-1.6 l -2.741,-26.102 c -0.109,-1.043 0.764,-1.948 1.88,-1.948 h 23.4 c 1.117,0 1.99,0.904 1.88,1.948 l -2.741,26.102 c -0.097,0.908 -0.91,1.6 -1.881,1.6 z"
             id="path2278" />
        </g>
      </g>
      <g
         id="g2300"
         transform="matrix(0.6191749,0,0,0.6191749,-366.58766,-288.10746)">
        <g
           id="g2286">
          <path
             style="fill:#ffffff"
             d="m 553.824,269.571 -31.589,-4.457 -6.042,-22.393 30.343,4.282 c 0.757,0.107 1.378,0.666 1.583,1.426 z"
             id="path2284" />
        </g>
        <g
           id="g2290"
           style="fill:#000000">
          <path
             style="fill:#000000"
             d="m 551.079,269.184 -31.589,-4.457 -5.392,-19.985 c -0.306,-1.133 0.62,-2.229 1.75,-2.069 l 29.189,4.119 z"
             id="path2288" />
        </g>
        <g
           id="g2294"
           style="fill:#000000;fill-opacity:1">
          <path
             style="fill:#000000;fill-opacity:1"
             d="m 564.014,273.729 -44.555,-6.287 c -0.724,-0.102 -1.228,-0.772 -1.126,-1.496 0.109,-0.77 0.779,-1.274 1.503,-1.172 l 44.555,6.287 c 0.724,0.102 1.228,0.772 1.126,1.496 -0.109,0.771 -0.779,1.275 -1.503,1.172 z"
             id="path2292" />
        </g>
        <g
           id="g2298">
          <path
             style="fill:#ffffff"
             d="m 535.008,256.146 c -0.188,1.33 -1.381,2.261 -2.666,2.079 -1.285,-0.181 -2.174,-1.406 -1.987,-2.736 0.188,-1.33 1.381,-2.261 2.666,-2.079 1.285,0.182 2.175,1.406 1.987,2.736 z"
             id="path2296" />
        </g>
      </g>
    </g>
  </g>
</svg>
