<?xml version="1.0" encoding="UTF-8" standalone="no"?>
<!-- Created with Inkscape (http://www.inkscape.org/) -->

<svg
   width="6.2683067mm"
   height="5.5398703mm"
   viewBox="0 0 6.268307 5.5398701"
   version="1.1"
   id="svg1646"
   inkscape:version="1.1 (c68e22c387, 2021-05-23)"
   sodipodi:docname="home__fibre.svg"
   inkscape:export-filename="C:\Users\Agathe\Desktop\pin_fibre.png"
   inkscape:export-xdpi="200"
   inkscape:export-ydpi="200"
   xmlns:inkscape="http://www.inkscape.org/namespaces/inkscape"
   xmlns:sodipodi="http://sodipodi.sourceforge.net/DTD/sodipodi-0.dtd"
   xmlns="http://www.w3.org/2000/svg"
   xmlns:svg="http://www.w3.org/2000/svg">
  <sodipodi:namedview
     id="namedview1648"
     pagecolor="#ffffff"
     bordercolor="#666666"
     borderopacity="1.0"
     inkscape:pageshadow="2"
     inkscape:pageopacity="0.0"
     inkscape:pagecheckerboard="0"
     inkscape:document-units="mm"
     showgrid="false"
     lock-margins="true"
     fit-margin-top="0"
     fit-margin-left="0"
     fit-margin-right="0"
     fit-margin-bottom="0"
     inkscape:zoom="22.207183"
     inkscape:cx="18.192312"
     inkscape:cy="11.550317"
     inkscape:window-width="2400"
     inkscape:window-height="1271"
     inkscape:window-x="2391"
     inkscape:window-y="-9"
     inkscape:window-maximized="1"
     inkscape:current-layer="g1587" />
  <defs
     id="defs1643" />
  <g
     inkscape:label="Calque 1"
     inkscape:groupmode="layer"
     id="layer1"
     transform="translate(-100.56802,-133.03127)">
    <g
       id="g1587"
       transform="translate(-131.46764,49.208633)"
       style="fill:#ff5555">
      <path
         id="path1579"
         style="fill:#ffffff;fill-opacity:1;stroke:none;stroke-width:0.939394px;stroke-linecap:butt;stroke-linejoin:miter;stroke-opacity:1"
         d="m 20.681641,10.1875 c -0.413627,0 -0.826668,0.07257 -1.148438,0.216797 -0.464844,0.208297 -10.2562292,7.486722 -10.5468749,7.839844 -0.2451401,0.297879 -0.1807615,0.791306 0.1367188,1.064453 0.3959055,0.340554 0.6666721,0.304318 1.3398441,-0.177735 l 0.58789,-0.419921 0.002,5.003906 c 0.0034,3.9397 0.03417,5.086412 0.144532,5.396484 0.322507,0.90409 1.044411,1.605963 1.941406,1.888672 0.363326,0.114066 1.820995,0.136968 7.699219,0.121094 7.150148,-0.02011 7.255834,-0.02344 7.724609,-0.240235 0.572939,-0.264982 1.149695,-0.820344 1.466797,-1.414062 0.233197,-0.434895 0.233436,-0.467925 0.263672,-5.59375 l 0.0293,-5.15625 0.583984,0.417969 c 0.669468,0.479395 0.940599,0.514061 1.335938,0.173828 0.317858,-0.27312 0.381632,-0.766589 0.136718,-1.064453 C 32.088487,17.891016 22.296875,10.612624 21.832031,10.404297 21.510242,10.26007 21.095267,10.1875 20.681641,10.1875 Z m -0.115235,8.666016 c 1.24581,-0.01673 2.492295,0.250775 3.609375,0.802734 0.819515,0.404965 1.167969,0.747691 1.167969,1.146484 0,0.373115 -0.161736,0.608345 -0.517578,0.75586 -0.294425,0.121852 -0.375809,0.09974 -1.121094,-0.289063 -1.059742,-0.553005 -1.849897,-0.748047 -3.041016,-0.748047 -1.178342,0 -1.913129,0.180047 -2.974609,0.726563 -0.861392,0.443516 -0.877597,0.446849 -1.220703,0.308594 -0.283465,-0.113991 -0.447266,-0.410533 -0.447266,-0.810547 0,-0.38979 0.426949,-0.76677 1.337891,-1.181641 1.010285,-0.460065 2.107788,-0.696175 3.207031,-0.710937 z m 0.13086,2.751953 c 0.235897,-0.002 0.465148,0.01321 0.683593,0.05078 0.821481,0.141317 1.678232,0.508352 2.044922,0.875 0.513449,0.513475 0.196857,1.410156 -0.498047,1.410156 -0.153826,0 -0.548335,-0.152694 -0.875,-0.33789 -0.524145,-0.297033 -0.685525,-0.335938 -1.371093,-0.335938 -0.685531,0 -0.844996,0.03894 -1.369141,0.335938 -0.70628,0.400248 -1.097904,0.427968 -1.408203,0.09766 -0.318614,-0.338759 -0.298196,-0.843869 0.04687,-1.164063 0.605882,-0.561514 1.723872,-0.922803 2.746094,-0.93164 z m -0.05078,2.439453 c 0.01223,-6.03e-4 0.02499,0 0.03711,0 0.387439,0 0.838714,0.31093 0.996094,0.6875 0.297069,0.711175 -0.221858,1.486328 -0.996094,1.486328 -0.230929,0 -0.493982,-0.08441 -0.652344,-0.208984 -0.395754,-0.31132 -0.534906,-0.824621 -0.345703,-1.277344 0.152315,-0.364824 0.581744,-0.668818 0.960937,-0.6875 z"
         transform="matrix(0.26458333,0,0,0.26458333,229.69754,81.127197)" />
    </g>
  </g>
</svg>
